<svg xmlns="http://www.w3.org/2000/svg" width="58" height="64.063" viewBox="0 0 58 64.063">
  <g id="Layer_1" data-name="Layer 1" transform="translate(0 0.003)">
    <g id="Group_126" data-name="Group 126" transform="translate(-0.001 -0.003)">
      <path id="Path_86" data-name="Path 86" d="M45.518,32.725h0a15.709,15.709,0,0,0-6.164-.11V32.12c3.23-.839,9.6-3.327,10.4-9.956A12.631,12.631,0,0,0,46.88,11.956,13.78,13.78,0,0,0,37.314,7.57C35.37,3.263,30.345.14,24.947,0a12.5,12.5,0,0,0-12,7.442,13.1,13.1,0,0,0-9.577,3.549C1.457,12.882-.649,16.358.188,22.237c.56,3.192,3.224,7.546,8.882,9.75v7.365c0,.028.006.052.007.08v5.916A1.427,1.427,0,0,0,10.5,46.775H26.382A15.841,15.841,0,1,0,45.516,32.727ZM26.9,43.919H11.932V40.777H28.158A15.787,15.787,0,0,0,26.9,43.919ZM11.924,37.794V30.98a1.429,1.429,0,0,0-.986-1.358c-5.131-1.668-7.483-5.288-7.931-7.836-.532-3.738.263-6.687,2.367-8.764a10.253,10.253,0,0,1,8.252-2.649,1.428,1.428,0,0,0,1.548-.893,9.791,9.791,0,0,1,9.7-6.627c4.627.116,8.874,2.875,10.1,6.56a1.428,1.428,0,0,0,1.354.977,11.137,11.137,0,0,1,8.413,3.454,9.861,9.861,0,0,1,2.18,7.972c-.667,5.5-6.706,7.26-9.27,7.763a1.428,1.428,0,0,0-1.152,1.4v2.432a15.966,15.966,0,0,0-6.28,4.382Zm42.92,13.174a12.99,12.99,0,0,1-25.6-4.2,12.341,12.341,0,0,1,.659-2.854,12.873,12.873,0,0,1,1.59-3.142c.032-.045.067-.086.1-.129a12.883,12.883,0,0,1,2.639-2.723c.058-.045.121-.086.181-.129.233-.176.467-.351.715-.512a13.331,13.331,0,0,1,1.371-.76A12.978,12.978,0,0,1,54.843,50.968Z" transform="translate(0.001 0.003)" fill="#ef4823"/>
      <path id="Path_87" data-name="Path 87" d="M192.216,222.02a2.262,2.262,0,0,0-2.346-.766l-8.075,2.156-4.969,1.326a2.239,2.239,0,0,0-1.657,1.9c0,.032-.013.063-.015.1a2.243,2.243,0,0,0,1.315,2.251l4.546,2.075,1.068,4.883a2.24,2.24,0,0,0,1.922,1.76,2.339,2.339,0,0,0,.3.019,2.239,2.239,0,0,0,2.006-1.231l6.158-12.016a2.269,2.269,0,0,0-.256-2.454Zm-7.7,11.5-.982-4.49-4.18-1.907,9.78-2.609-4.616,9.007Z" transform="translate(-142.431 -179.864)" fill="#ef4823"/>
    </g>
  </g>
</svg>
