<svg xmlns="http://www.w3.org/2000/svg" width="31.25" height="67.043" viewBox="0 0 31.25 67.043">
  <g id="Layer_1" data-name="Layer 1" transform="translate(0 0.008)">
    <g id="Group_124" data-name="Group 124" transform="translate(0 -0.008)">
      <g id="Group_122" data-name="Group 122" transform="translate(0 16.949)">
        <path id="Path_74" data-name="Path 74" d="M26.374,144.074H4.876A4.882,4.882,0,0,1,0,139.2V98.856A4.882,4.882,0,0,1,4.876,93.98h21.5a4.882,4.882,0,0,1,4.876,4.876V139.2A4.882,4.882,0,0,1,26.374,144.074ZM4.876,96.55A2.31,2.31,0,0,0,2.57,98.856V139.2A2.31,2.31,0,0,0,4.876,141.5h21.5A2.31,2.31,0,0,0,28.68,139.2V98.856a2.31,2.31,0,0,0-2.306-2.306Z" transform="translate(0 -93.98)" fill="#ee4823"/>
        <path id="Path_75" data-name="Path 75" d="M63.838,123.078H54.264a1.284,1.284,0,1,1,0-2.568h9.574a1.284,1.284,0,1,1,0,2.568Z" transform="translate(-43.426 -115.726)" fill="#ee4823"/>
        <rect id="Rectangle_106" data-name="Rectangle 106" width="27.356" height="2.57" transform="translate(1.616 41.298)" fill="#ee4823"/>
      </g>
      <g id="Group_123" data-name="Group 123" transform="translate(4.849 0)">
        <path id="Path_76" data-name="Path 76" d="M56.926,38.969a1.341,1.341,0,0,1-.811-.272,9.789,9.789,0,0,0-11.63-.24,1.347,1.347,0,0,1-1.637-2.139,12.386,12.386,0,0,1,14.89.231,1.346,1.346,0,0,1-.811,2.42Z" transform="translate(-39.536 -27.814)" fill="#ee4823"/>
        <path id="Path_77" data-name="Path 77" d="M47.093,5.589a1.338,1.338,0,0,1-.761-.236c-8.645-5.931-16.976-.3-17.326-.056a1.347,1.347,0,0,1-1.542-2.209c.1-.07,10.185-6.959,20.39.043a1.346,1.346,0,0,1-.763,2.456Z" transform="translate(-26.89 0.008)" fill="#ee4823"/>
      </g>
    </g>
  </g>
</svg>
