<svg xmlns="http://www.w3.org/2000/svg" width="50.19" height="61.043" viewBox="0 0 50.19 61.043">
  <g id="Layer_1" data-name="Layer 1" transform="translate(0.002 -0.01)">
    <g id="Group_120" data-name="Group 120" transform="translate(-0.002 0.01)">
      <path id="Path_68" data-name="Path 68" d="M49.423,14.7A1.605,1.605,0,0,0,48.4,13.49C37.966,9.3,33.948,6.445,25.855.379A1.959,1.959,0,0,0,23.629.336h0c-.546.374-1.179.833-1.907,1.361A102.691,102.691,0,0,1,1.443,13.513a1.592,1.592,0,0,0-.976,1.223C-.6,22.45-2.068,48.574,23.879,60.868a1.965,1.965,0,0,0,1.464.082c10.4-3.527,28.825-17.731,24.079-46.253Zm-24.5,43-.1.039-.1-.05C6.447,48.567,1.694,30.223,3.341,16.1l.016-.14.128-.058A117.767,117.767,0,0,0,23.978,4.131l.7-.509.145.108A84.37,84.37,0,0,0,46.437,15.95l.131.053.021.14C50.27,40.913,34.7,53.914,24.926,57.692Z" transform="translate(0.002 -0.01)" fill="#ee4823"/>
      <path id="Path_69" data-name="Path 69" d="M97.394,123.865a1.57,1.57,0,0,0-1.092.516L84.811,137.057l-6.522-5.632a1.565,1.565,0,0,0-1.03-.385.86.86,0,0,0-.117.005,1.578,1.578,0,0,0-.916,2.768l7.688,6.639a1.571,1.571,0,0,0,2.2-.135L98.641,126.5a1.579,1.579,0,0,0-1.248-2.637Z" transform="translate(-62.268 -101.913)" fill="#ee4823"/>
    </g>
  </g>
</svg>
