<svg xmlns="http://www.w3.org/2000/svg" width="50" height="53.822" viewBox="0 0 50 53.822">
  <g id="Layer_1" data-name="Layer 1" transform="translate(0.003 0.009)">
    <g id="Group_119" data-name="Group 119" transform="translate(-0.003 -0.009)">
      <path id="Path_65" data-name="Path 65" d="M28.833,53.813a2.322,2.322,0,0,1-1.6-.608,2.423,2.423,0,0,1-.521-2.587c.988-3.133,2.108-10.125-1.68-21.223C22.984,23.4,19.857,8.626,34.776.7a2.859,2.859,0,0,1,3.8.007,2.678,2.678,0,0,1,.56,2.825l-.054.2c-1,3.986-1.493,10.8,1.851,20.622,5.849,17.167-3.718,25.4-9.941,28.789h0a4.665,4.665,0,0,1-2.162.657ZM36,3.312c-5.421,3.007-13.145,10.146-8,25.265,3.671,10.769,2.956,18.034,1.968,21.859,6.464-3.727,12.811-11.1,7.988-25.251C34.457,14.92,34.947,7.647,36,3.312Z" transform="translate(-7.983 0.009)" fill="#ed4923"/>
      <path id="Path_66" data-name="Path 66" d="M56.852,48.045a2.2,2.2,0,0,1-1.462-.516,1.9,1.9,0,0,1-.482-2.158c.692-2.1,1.47-6.809-1.206-14.322-4.449-12.519,3.43-18.2,7.148-20.1a2.608,2.608,0,0,1,3.306.074,2.109,2.109,0,0,1,.49,2.279l-.039.134c-.708,2.688-1.05,7.285,1.315,13.94,4.278,12.017-2.738,17.8-7.3,20.18h0a3.811,3.811,0,0,1-1.773.5Zm4.488-34.18c-3.648,2.245-7.988,7.024-4.659,16.393,2.372,6.669,2.209,11.414,1.633,14.255,4.154-2.634,7.786-7.506,4.644-16.353-2.295-6.447-2.217-11.206-1.61-14.289Z" transform="translate(-17.251 -2.304)" fill="#ed4923"/>
      <path id="Path_67" data-name="Path 67" d="M4.464,48.048a2.2,2.2,0,0,1-1.455-.523,1.9,1.9,0,0,1-.482-2.158c.692-2.1,1.47-6.81-1.206-14.323C-3.128,18.517,4.752,12.833,8.47,10.93A2.608,2.608,0,0,1,11.776,11a2.1,2.1,0,0,1,.49,2.272l-.039.134c-.708,2.688-1.05,7.292,1.315,13.941,4.27,12.017-2.738,17.8-7.3,20.181h0a3.835,3.835,0,0,1-1.781.5Zm4.5-34.189C5.312,16.1.972,20.883,4.3,30.253,6.673,36.922,6.51,41.667,5.934,44.509,10.088,41.875,13.72,37,10.578,28.155c-2.295-6.448-2.217-11.206-1.61-14.29Z" transform="translate(0.003 -2.299)" fill="#ed4923"/>
    </g>
  </g>
</svg>
