<svg xmlns="http://www.w3.org/2000/svg" width="34.875" height="57.41" viewBox="0 0 34.875 57.41">
  <g id="Layer_1" data-name="Layer 1" transform="translate(-388 85)">
    <g id="Group_125" data-name="Group 125" transform="translate(388 -85)">
      <path id="Path_78" data-name="Path 78" d="M1.622,47.35H4.617a1.275,1.275,0,0,0,0-2.55H1.622A1.278,1.278,0,0,0,.347,46.075,1.2,1.2,0,0,0,1.622,47.35Z" transform="translate(-0.284 -37.155)" fill="#ee4823"/>
      <path id="Path_79" data-name="Path 79" d="M4.27,165.03H1.275a1.275,1.275,0,0,0,0,2.55H4.27a1.275,1.275,0,0,0,0-2.55Z" transform="translate(0 -136.867)" fill="#ee4823"/>
      <path id="Path_80" data-name="Path 80" d="M4.27,104.54H1.275a1.275,1.275,0,0,0,0,2.55H4.27a1.275,1.275,0,0,0,0-2.55Z" transform="translate(0 -86.7)" fill="#ee4823"/>
      <circle id="Ellipse_130" data-name="Ellipse 130" cx="2.517" cy="2.517" r="2.517" transform="translate(10.992 47.087)" fill="#ee4823"/>
      <path id="Path_81" data-name="Path 81" d="M45.934,43.778V5.161a4.911,4.911,0,0,0-1.6-3.632A5.3,5.3,0,0,0,40.62,0a5.039,5.039,0,0,0-3.713,1.529,5.573,5.573,0,0,0-1.6,3.632v38.9a7.634,7.634,0,0,0-2.466,5.6,7.941,7.941,0,0,0,15.878,0,7.655,7.655,0,0,0-2.785-5.886ZM40.782,54.86a5.3,5.3,0,0,1-5.389-5.2,5.157,5.157,0,0,1,2.582-4.428V5.225A2.513,2.513,0,0,1,38.8,3.377a3.006,3.006,0,0,1,1.911-.765,2.7,2.7,0,0,1,1.911.765,2.9,2.9,0,0,1,.828,1.848v39.93a5.171,5.171,0,0,1,2.719,4.509,5.3,5.3,0,0,1-5.389,5.2Z" transform="translate(-27.236 0)" fill="#ee4823"/>
      <path id="Path_82" data-name="Path 82" d="M146.048,51.519h-7.219a2.164,2.164,0,0,1-1.874-3.246l3.609-6.251a2.142,2.142,0,0,1,1.874-1.082h0a2.142,2.142,0,0,1,1.874,1.082l3.609,6.251a2.164,2.164,0,0,1-1.874,3.246Zm-6.551-2.55h5.886l-2.942-5.1Z" transform="translate(-113.34 -33.953)" fill="#ee4823"/>
      <path id="Path_83" data-name="Path 83" d="M142.439,131.671h0a2.138,2.138,0,0,1-1.874-1.084l-3.609-6.251a2.164,2.164,0,0,1,1.874-3.246h7.219a2.164,2.164,0,0,1,1.874,3.246l-3.609,6.251a2.142,2.142,0,0,1-1.874,1.082ZM139.5,123.64l2.942,5.1,2.944-5.1Z" transform="translate(-113.34 -100.425)" fill="#ee4823"/>
      <path id="Path_84" data-name="Path 84" d="M76.067,165.024a.637.637,0,0,1-.637-.637V139.037a.637.637,0,0,1,1.273,0v25.351A.637.637,0,0,1,76.067,165.024Z" transform="translate(-62.557 -114.781)" fill="#ee4823"/>
    </g>
  </g>
</svg>
