<svg id="Layer_1" data-name="Layer 1" xmlns="http://www.w3.org/2000/svg" width="48.53" height="51.119" viewBox="0 0 48.53 51.119">
  <path id="Path_85" data-name="Path 85" d="M48.426,29.5c-.012-.049-.021-.084-.034-.12L41.053,6.827l3.838-.62a1.139,1.139,0,0,0-.365-2.249L29.3,6.422l-.021-.052a5.4,5.4,0,0,0-3.815-3.25l-.055-.012V1.14a1.14,1.14,0,0,0-2.28,0V3.107l-.055.012a5.419,5.419,0,0,0-4.189,4.919l0,.057-.057.009L3.314,10.61a1.14,1.14,0,0,0,.363,2.251l4.78-.772-.043.115L.208,34.03c-.006.015-.011.031-.017.046l-.008.017a1.136,1.136,0,0,0-.184.62,9.667,9.667,0,0,0,19.335,0,1.147,1.147,0,0,0-.136-.541L11.835,11.544l7.409-1.2.021.052a5.409,5.409,0,0,0,3.679,3.216l.054.014v35.21H14.7a1.14,1.14,0,0,0,0,2.28H34.708a1.14,1.14,0,0,0,0-2.28h-9.43V13.689l.058-.011A5.4,5.4,0,0,0,29.661,8.73l0-.057.057-.009,7.907-1.279-.043.115-8.19,21.794c-.009.025-.017.049-.025.074l-.008.017a1.138,1.138,0,0,0-.167.594,9.667,9.667,0,0,0,19.335,0,1.134,1.134,0,0,0-.1-.47ZM16.954,35.936a7.389,7.389,0,0,1-14.573,0l-.014-.083h14.6l-.014.083ZM16.6,33.574H2.814l7.392-19.667,6.4,19.667ZM24.273,11.5A3.119,3.119,0,1,1,27.39,8.384,3.122,3.122,0,0,1,24.273,11.5ZM39.4,9.128l6.412,19.707H32L39.406,9.128ZM46.148,31.2a7.389,7.389,0,0,1-14.573,0l-.014-.083h14.6l-.014.083Z" transform="translate(0 0)" fill="#ee4823"/>
</svg>
