<?xml version="1.0" encoding="UTF-8"?>
<svg id="Layer_2" xmlns="http://www.w3.org/2000/svg" viewBox="0 0 79.69 101.39">
  <defs>
    <style>
      .cls-1 {
        fill: #ee4823;
      }

      .cls-2 {
        fill: #ef4823;
      }

      .cls-3 {
        fill: #fff;
      }
    </style>
  </defs>
  <g id="Layer_1-2" data-name="Layer_1">
    <g>
      <g>
        <polygon class="cls-1" points="17.07 43.58 14.67 39.95 9.96 49.37 20.47 48.74 18.07 45.1 24.11 41.12 23.11 39.59 17.07 43.58"/>
        <polygon class="cls-1" points="64.68 19.53 69.39 10.11 58.87 10.74 61.27 14.38 55.24 18.36 56.24 19.89 62.28 15.9 64.68 19.53"/>
        <path class="cls-1" d="M72.96,59.98H6.73c-3.71,0-6.73-3.02-6.73-6.73V6.73C0,3.02,3.02,0,6.73,0h66.23c3.71,0,6.73,3.02,6.73,6.73v46.52c0,3.71-3.02,6.73-6.73,6.73ZM6.73,3.82c-1.61,0-2.91,1.31-2.91,2.91v46.52c0,1.61,1.31,2.91,2.91,2.91h66.23c1.61,0,2.91-1.31,2.91-2.91V6.73c0-1.61-1.31-2.91-2.91-2.91H6.73Z"/>
      </g>
      <g>
        <path class="cls-2" d="M40.89,25.86v1.65l-4.75,10.12-2.31-1,4.5-8.93h-4.84v-1.84h7.4Z"/>
        <path class="cls-2" d="M44.01,26.08c-.45-.1-.8-.3-1.05-.61-.25-.3-.37-.67-.37-1.12s.14-.8.41-1.12c.27-.31.67-.47,1.2-.47.2,0,.41.04.63.13.22.09.42.23.59.42.17.19.31.44.43.75.11.31.17.68.17,1.11,0,.47-.08.91-.23,1.33-.15.42-.35.81-.61,1.17-.25.36-.54.68-.86.96s-.65.51-.97.67l-.78-1.06c.4-.21.77-.51,1.09-.89s.53-.79.61-1.23l-.26-.06ZM48.74,26.08c-.45-.1-.8-.3-1.05-.61-.25-.3-.37-.67-.37-1.12s.14-.8.41-1.12c.27-.31.67-.47,1.2-.47.2,0,.41.04.63.13.22.09.42.23.59.42.17.19.31.44.43.75.11.31.17.68.17,1.11,0,.47-.08.91-.23,1.33-.15.42-.35.81-.61,1.17-.25.36-.54.68-.86.96s-.65.51-.97.67l-.78-1.06c.4-.21.77-.51,1.09-.89s.53-.79.61-1.23l-.26-.06Z"/>
      </g>
      <g>
        <g>
          <path class="cls-2" d="M68.84,71.89c-.78-2.98-2.88-5.45-6.01-5.82-.74,0-1.52.06-2.18.21-.39-.93-.93-1.72-1.61-2.2-1.13-.8-2.28-1.06-3.22-1.04-.9.02-1.71.34-2.44.85-.33-.5-.66-1.01-1.09-1.32-1.12-.81-2.32-1.04-3.26-1.04-.78,0-1.54.22-2.27.52v-1.94s0,0,0,0v-3.52s0,0,0,0v-7.17c-.06-4.05-3.26-6.06-6.05-6.05-3.33,0-6.05,2.73-6.05,6.05v7.17s0,0,0,0v3.52h0v10.15c-.94-2.03-2.62-4.22-4.73-4.75-2.87-.78-6.39,1.52-7.19,4.19-.41,1.49-.14,3.18.66,5.25,3.93,9.45,8.77,18.53,14.66,25.42.28.32.71.52,1.14.52h20.43c.32,0,.64-.11.9-.31,2.18-1.61,3.93-4.36,5.39-7.64,1.46-3.28,2.57-7.08,3.15-10.78.57-3.71.57-7.18-.24-10.26Z"/>
          <path class="cls-2" d="M59.64,101.39h-20.43c-.57,0-1.14-.26-1.51-.69-5.32-6.23-10.28-14.83-14.75-25.56-.89-2.28-1.1-4.05-.68-5.58.84-2.79,4.5-5.43,7.8-4.54,1.86.47,3.23,2.02,4.1,3.33v-18.93c0-3.61,2.94-6.55,6.55-6.55h.02c3.12,0,6.47,2.29,6.54,6.55v11.92c.63-.2,1.21-.3,1.77-.3.91,0,2.26.2,3.56,1.14.37.27.67.65.94,1.04.74-.43,1.5-.65,2.28-.66.86,0,2.16.17,3.51,1.13.63.45,1.18,1.15,1.61,2.04.69-.12,1.38-.14,1.88-.14,3.12.36,5.59,2.73,6.49,6.19.78,2.97.86,6.49.25,10.47-.57,3.71-1.7,7.58-3.18,10.91-1.66,3.74-3.48,6.3-5.55,7.84-.34.26-.77.41-1.2.41ZM28.72,65.85c-2.41,0-4.88,1.95-5.5,3.99-.36,1.3-.15,2.87.65,4.93,4.42,10.62,9.33,19.13,14.58,25.28.18.21.47.34.76.35h20.43c.21,0,.42-.08.6-.21,1.93-1.43,3.65-3.87,5.24-7.44,1.45-3.25,2.55-7.03,3.11-10.66.59-3.84.52-7.22-.23-10.06h0c-.81-3.1-2.9-5.13-5.58-5.45-.72,0-1.44.07-2.01.2l-.41.09-.16-.39c-.38-.9-.87-1.58-1.44-1.98-1.13-.81-2.22-.95-2.92-.95-.73.01-1.46.27-2.16.76l-.42.3-.28-.43c-.32-.48-.62-.94-.96-1.19-1.08-.78-2.21-.94-2.97-.94-.63,0-1.29.15-2.08.48l-.69.29v-13.38c-.06-3.61-2.89-5.55-5.54-5.55h-.02c-3.06,0-5.56,2.49-5.56,5.55v23.11l-.95-2.06c-.41-.89-1.95-3.86-4.4-4.48-.36-.1-.72-.14-1.09-.14Z"/>
        </g>
        <path class="cls-3" d="M66.07,81.68c-.53,3.43-1.57,7.03-2.91,10.03-1.25,2.81-2.79,5.01-4.14,6.15h-19.09c-5.31-6.27-10.39-15.89-13.69-24-.69-1.77-.75-2.79-.59-3.36.56-1.46,2.13-2.29,3.48-2.08,1.61.61,2.01,1.68,2.7,2.91l3,6.03c.31.6,1.05.94,1.7.78.65-.16,1.16-.79,1.16-1.47v-27.25c0-1.7,1.32-3.03,3.03-3.03h0c1.7,0,3.03,1.32,3.03,3.03v15.89c0,.69.51,1.34,1.18,1.49.67.15,1.41-.21,1.7-.83.33-.7,1.59-1.42,2.41-1.42.37,0,1.05.15,1.49.47.44.32.78.7.78,1.8,0,.67.5,1.31,1.16,1.47.65.16,1.4-.18,1.7-.78.62-1.23.95-1.43,1.7-1.44.21,0,.94.14,1.42.47.47.34.83.72.83,1.8,0,.59.36,1.16.9,1.4.54.24,1.23.12,1.66-.28.57-.28,1.14-.37,1.87-.35,1.8.23,2.74,1.36,3.38,3.62.65,2.28.67,5.54.14,8.96Z"/>
      </g>
    </g>
  </g>
</svg>