<?xml version="1.0" encoding="UTF-8"?>
<svg id="Layer_2" xmlns="http://www.w3.org/2000/svg" viewBox="0 0 93.55 91.59">
  <defs>
    <style>
      .cls-1 {
        fill: #ee4823;
      }

      .cls-2 {
        fill: #fff;
      }
    </style>
  </defs>
  <g id="Layer_1-2" data-name="Layer_1">
    <g>
      <path class="cls-1" d="M91.64,29.16H1.91c-1.05,0-1.91-.85-1.91-1.91s.85-1.91,1.91-1.91h89.73c1.05,0,1.91.85,1.91,1.91s-.85,1.91-1.91,1.91Z"/>
      <g>
        <polygon class="cls-2" points="59.37 1.91 34.18 1.91 34.18 11.64 41.91 11.64 41.91 27.25 51.64 27.25 51.64 11.64 59.37 11.64 59.37 1.91"/>
        <path class="cls-1" d="M51.64,29.16h-9.73c-1.05,0-1.91-.85-1.91-1.91v-13.71h-5.82c-1.05,0-1.91-.85-1.91-1.91V1.91c0-1.05.85-1.91,1.91-1.91h25.19c1.05,0,1.91.85,1.91,1.91v9.73c0,1.05-.85,1.91-1.91,1.91h-5.82v13.71c0,1.05-.85,1.91-1.91,1.91ZM43.82,25.35h5.92v-13.71c0-1.05.85-1.91,1.91-1.91h5.82V3.82h-21.37v5.92h5.82c1.05,0,1.91.85,1.91,1.91v13.71Z"/>
      </g>
      <g>
        <g>
          <path class="cls-2" d="M9.39,27.25h29.17v48.41c0,3.73-3.03,6.76-6.76,6.76h-15.65c-3.73,0-6.76-3.03-6.76-6.76V27.25h0Z"/>
          <path class="cls-1" d="M31.8,84.33h-15.65c-4.78,0-8.67-3.89-8.67-8.67V27.25c0-1.05.85-1.91,1.91-1.91h29.17c1.05,0,1.91.85,1.91,1.91v48.41c0,4.78-3.89,8.67-8.67,8.67ZM11.3,29.16v46.5c0,2.68,2.18,4.85,4.85,4.85h15.65c2.68,0,4.85-2.18,4.85-4.85V29.16H11.3Z"/>
        </g>
        <g>
          <path class="cls-2" d="M54.99,27.25h29.17v48.41c0,3.73-3.03,6.76-6.76,6.76h-15.65c-3.73,0-6.76-3.03-6.76-6.76V27.25h0Z"/>
          <path class="cls-1" d="M77.4,84.33h-15.65c-4.78,0-8.67-3.89-8.67-8.67V27.25c0-1.05.85-1.91,1.91-1.91h29.17c1.05,0,1.91.85,1.91,1.91v48.41c0,4.78-3.89,8.67-8.67,8.67ZM56.89,29.16v46.5c0,2.68,2.18,4.85,4.85,4.85h15.65c2.68,0,4.85-2.18,4.85-4.85V29.16h-25.36Z"/>
        </g>
        <path class="cls-1" d="M55.63,91.59h-17.71c-5.27,0-9.56-4.29-9.56-9.56V27.25c0-1.05.85-1.91,1.91-1.91h33.01c1.05,0,1.91.85,1.91,1.91v54.77c0,5.27-4.29,9.56-9.56,9.56ZM32.18,29.16v52.87c0,3.17,2.58,5.74,5.74,5.74h17.71c3.17,0,5.74-2.58,5.74-5.74V29.16h-29.19Z"/>
      </g>
    </g>
  </g>
</svg>