<?xml version="1.0" encoding="UTF-8"?>
<svg id="Layer_2" xmlns="http://www.w3.org/2000/svg" viewBox="0 0 77.24 85.6">
  <defs>
    <style>
      .cls-1 {
        fill: #ee4823;
      }

      .cls-2 {
        fill: #fff;
      }
    </style>
  </defs>
  <g id="Layer_1-2" data-name="Layer_1">
    <g>
      <path class="cls-1" d="M43.85,73.41h-.05c-1.05,0-1.91-.85-1.91-1.91s.85-1.91,1.91-1.91,1.93.85,1.93,1.91-.83,1.91-1.88,1.91ZM36.72,73.41h-.05c-1.05,0-1.91-.85-1.91-1.91s.85-1.91,1.91-1.91,1.93.85,1.93,1.91-.83,1.91-1.88,1.91ZM29.59,73.41h-.05c-1.05,0-1.91-.85-1.91-1.91s.85-1.91,1.91-1.91,1.93.85,1.93,1.91-.83,1.91-1.88,1.91ZM22.46,73.41h-.05c-1.05,0-1.91-.85-1.91-1.91s.85-1.91,1.91-1.91,1.93.85,1.93,1.91-.83,1.91-1.88,1.91ZM15.33,73.41h-.05c-1.05,0-1.91-.85-1.91-1.91s.85-1.91,1.91-1.91,1.93.85,1.93,1.91-.83,1.91-1.88,1.91ZM8.21,73.41h-.05c-1.05,0-1.91-.85-1.91-1.91s.85-1.91,1.91-1.91,1.93.85,1.93,1.91-.83,1.91-1.88,1.91ZM50.8,72.96c-.52,0-1.03-.21-1.41-.62-.69-.76-.66-1.92.06-2.64.72-.75,1.91-.79,2.67-.08.77.71.82,1.92.11,2.69-.04.04-.11.11-.15.15-.37.33-.83.5-1.29.5ZM1.91,71.94c-1.02,0-1.86-.81-1.91-1.82,0-.04,0-.07,0-.11,0-1.05.85-1.93,1.91-1.93s1.91.83,1.91,1.88h0s0,.05,0,.07c0,1.05-.85,1.91-1.91,1.91ZM51.22,65.94c-1.05,0-1.91-.85-1.91-1.91s.85-1.93,1.91-1.93,1.91.83,1.91,1.88v.05c0,1.05-.85,1.91-1.91,1.91ZM1.91,64.77c-1.05,0-1.91-.83-1.91-1.88v-.05c0-1.05.85-1.91,1.91-1.91s1.91.85,1.91,1.91-.85,1.93-1.91,1.93ZM51.22,58.81c-1.05,0-1.91-.85-1.91-1.91s.85-1.93,1.91-1.93,1.91.83,1.91,1.88v.05c0,1.05-.85,1.91-1.91,1.91ZM1.91,57.64c-1.05,0-1.91-.83-1.91-1.88v-.05c0-1.05.85-1.91,1.91-1.91s1.91.85,1.91,1.91-.85,1.93-1.91,1.93ZM51.22,51.68c-1.05,0-1.91-.85-1.91-1.91s.85-1.93,1.91-1.93,1.91.83,1.91,1.88v.05c0,1.05-.85,1.91-1.91,1.91ZM1.91,50.51c-1.05,0-1.91-.83-1.91-1.88v-.05c0-1.05.85-1.91,1.91-1.91s1.91.85,1.91,1.91-.85,1.93-1.91,1.93ZM51.22,44.55c-1.05,0-1.91-.85-1.91-1.91s.85-1.93,1.91-1.93,1.91.83,1.91,1.88v.05c0,1.05-.85,1.91-1.91,1.91ZM1.91,43.38c-1.05,0-1.91-.83-1.91-1.88v-.05c0-1.05.85-1.91,1.91-1.91s1.91.85,1.91,1.91-.85,1.93-1.91,1.93ZM51.22,37.42c-1.05,0-1.91-.85-1.91-1.91s.85-1.93,1.91-1.93,1.91.83,1.91,1.88v.05c0,1.05-.85,1.91-1.91,1.91ZM1.91,36.26c-1.05,0-1.91-.83-1.91-1.88v-.05c0-1.05.85-1.91,1.91-1.91s1.91.85,1.91,1.91-.85,1.93-1.91,1.93ZM51.22,30.3c-1.05,0-1.91-.85-1.91-1.91s.85-1.93,1.91-1.93,1.91.83,1.91,1.88v.05c0,1.05-.85,1.91-1.91,1.91ZM1.91,29.13c-1.05,0-1.91-.83-1.91-1.88v-.05c0-1.05.85-1.91,1.91-1.91s1.91.85,1.91,1.91-.85,1.93-1.91,1.93ZM51.22,23.17c-1.05,0-1.91-.85-1.91-1.91s.85-1.93,1.91-1.93,1.91.83,1.91,1.88v.05c0,1.05-.85,1.91-1.91,1.91ZM1.91,22c-1.05,0-1.91-.83-1.91-1.88v-.05c0-1.05.85-1.91,1.91-1.91s1.91.85,1.91,1.91-.85,1.93-1.91,1.93ZM51.22,16.04c-1.05,0-1.91-.85-1.91-1.91s.85-1.93,1.91-1.93,1.91.83,1.91,1.88v.05c0,1.05-.85,1.91-1.91,1.91ZM1.91,14.87c-1.05,0-1.91-.83-1.91-1.88v-.05c0-1.05.85-1.91,1.91-1.91s1.91.85,1.91,1.91-.85,1.93-1.91,1.93ZM51.22,8.91c-1.05,0-1.91-.85-1.91-1.91s.85-1.93,1.91-1.93,1.91.83,1.91,1.88v.05c0,1.05-.85,1.91-1.91,1.91ZM1.91,7.74c-1.05,0-1.91-.83-1.91-1.88v-.05c0-1.05.85-1.91,1.91-1.91s1.91.85,1.91,1.91-.85,1.93-1.91,1.93ZM48.55,3.82c-1.05,0-1.93-.85-1.93-1.91s.83-1.91,1.88-1.91h.05c1.05,0,1.91.85,1.91,1.91s-.85,1.91-1.91,1.91ZM41.42,3.82c-1.05,0-1.93-.85-1.93-1.91s.83-1.91,1.88-1.91h.05c1.05,0,1.91.85,1.91,1.91s-.85,1.91-1.91,1.91ZM34.29,3.82c-1.05,0-1.93-.85-1.93-1.91s.83-1.91,1.88-1.91h.05c1.05,0,1.91.85,1.91,1.91s-.85,1.91-1.91,1.91ZM27.16,3.82c-1.05,0-1.93-.85-1.93-1.91s.83-1.91,1.88-1.91h.05c1.05,0,1.91.85,1.91,1.91s-.85,1.91-1.91,1.91ZM20.03,3.82c-1.05,0-1.93-.85-1.93-1.91s.83-1.91,1.88-1.91h.05c1.05,0,1.91.85,1.91,1.91s-.85,1.91-1.91,1.91ZM12.9,3.82c-1.05,0-1.93-.85-1.93-1.91s.83-1.91,1.88-1.91h.05c1.05,0,1.91.85,1.91,1.91s-.85,1.91-1.91,1.91ZM5.78,3.82c-1.05,0-1.93-.85-1.93-1.91s.83-1.91,1.88-1.91h.05c1.05,0,1.91.85,1.91,1.91s-.85,1.91-1.91,1.91Z"/>
      <path class="cls-1" d="M51.22,73.41H1.91c-1.05,0-1.91-.85-1.91-1.91v-21.17c0-1.05.85-1.91,1.91-1.91h24.92l13.71-29.94c.31-.68.99-1.11,1.74-1.11h8.94c.51,0,.99.2,1.35.56.36.36.56.84.56,1.35v52.23c0,1.05-.85,1.91-1.91,1.91ZM3.82,69.59h45.5V21.18h-5.8s-13.71,29.94-13.71,29.94c-.31.68-.99,1.11-1.74,1.11H3.82v17.36Z"/>
      <path class="cls-1" d="M67.96,85.6h-.05c-1.05,0-1.91-.85-1.91-1.91s.85-1.91,1.91-1.91,1.93.85,1.93,1.91-.83,1.91-1.88,1.91ZM60.83,85.6h-.05c-1.05,0-1.91-.85-1.91-1.91s.85-1.91,1.91-1.91,1.93.85,1.93,1.91-.83,1.91-1.88,1.91ZM53.71,85.6h-.05c-1.05,0-1.91-.85-1.91-1.91s.85-1.91,1.91-1.91,1.93.85,1.93,1.91-.83,1.91-1.88,1.91ZM46.58,85.6h-.05c-1.05,0-1.91-.85-1.91-1.91s.85-1.91,1.91-1.91,1.93.85,1.93,1.91-.83,1.91-1.88,1.91ZM39.45,85.6h-.05c-1.05,0-1.91-.85-1.91-1.91s.85-1.91,1.91-1.91,1.93.85,1.93,1.91-.83,1.91-1.88,1.91ZM32.32,85.6h-.05c-1.05,0-1.91-.85-1.91-1.91s.85-1.91,1.91-1.91,1.93.85,1.93,1.91-.83,1.91-1.88,1.91ZM74.92,85.15c-.52,0-1.03-.21-1.41-.62-.69-.76-.66-1.92.06-2.64.72-.75,1.91-.79,2.67-.08.77.71.82,1.92.11,2.69-.04.04-.11.11-.15.15-.37.33-.83.5-1.29.5ZM26.02,84.1c-1.05,0-1.91-.82-1.91-1.87v-.02c0-1.05.85-1.93,1.91-1.93s1.91.83,1.91,1.88-.85,1.94-1.91,1.94ZM75.33,78.13c-1.05,0-1.91-.85-1.91-1.91s.85-1.93,1.91-1.93,1.91.83,1.91,1.88v.05c0,1.05-.85,1.91-1.91,1.91ZM26.02,76.96c-1.05,0-1.91-.83-1.91-1.88v-.05c0-1.05.85-1.91,1.91-1.91s1.91.85,1.91,1.91-.85,1.93-1.91,1.93ZM75.33,71c-1.05,0-1.91-.85-1.91-1.91s.85-1.93,1.91-1.93,1.91.83,1.91,1.88v.05c0,1.05-.85,1.91-1.91,1.91ZM26.02,69.83c-1.05,0-1.91-.83-1.91-1.88v-.05c0-1.05.85-1.91,1.91-1.91s1.91.85,1.91,1.91-.85,1.93-1.91,1.93ZM75.33,63.87c-1.05,0-1.91-.85-1.91-1.91s.85-1.93,1.91-1.93,1.91.83,1.91,1.88v.05c0,1.05-.85,1.91-1.91,1.91ZM26.02,62.7c-1.05,0-1.91-.83-1.91-1.88v-.05c0-1.05.85-1.91,1.91-1.91s1.91.85,1.91,1.91-.85,1.93-1.91,1.93ZM75.33,56.74c-1.05,0-1.91-.85-1.91-1.91s.85-1.93,1.91-1.93,1.91.83,1.91,1.88v.05c0,1.05-.85,1.91-1.91,1.91ZM26.02,55.57c-1.05,0-1.91-.83-1.91-1.88v-.05c0-1.05.85-1.91,1.91-1.91s1.91.85,1.91,1.91-.85,1.93-1.91,1.93ZM75.33,49.61c-1.05,0-1.91-.85-1.91-1.91s.85-1.93,1.91-1.93,1.91.83,1.91,1.88v.05c0,1.05-.85,1.91-1.91,1.91ZM26.02,48.44c-1.05,0-1.91-.83-1.91-1.88v-.05c0-1.05.85-1.91,1.91-1.91s1.91.85,1.91,1.91-.85,1.93-1.91,1.93ZM75.33,42.48c-1.05,0-1.91-.85-1.91-1.91s.85-1.93,1.91-1.93,1.91.83,1.91,1.88v.05c0,1.05-.85,1.91-1.91,1.91ZM26.02,41.32c-1.05,0-1.91-.83-1.91-1.88v-.05c0-1.05.85-1.91,1.91-1.91s1.91.85,1.91,1.91-.85,1.93-1.91,1.93ZM75.33,35.36c-1.05,0-1.91-.85-1.91-1.91s.85-1.93,1.91-1.93,1.91.83,1.91,1.88v.05c0,1.05-.85,1.91-1.91,1.91ZM26.02,34.19c-1.05,0-1.91-.83-1.91-1.88v-.05c0-1.05.85-1.91,1.91-1.91s1.91.85,1.91,1.91-.85,1.93-1.91,1.93ZM75.33,28.23c-1.05,0-1.91-.85-1.91-1.91s.85-1.93,1.91-1.93,1.91.83,1.91,1.88v.05c0,1.05-.85,1.91-1.91,1.91ZM26.02,27.06c-1.05,0-1.91-.83-1.91-1.88v-.05c0-1.05.85-1.91,1.91-1.91s1.91.85,1.91,1.91-.85,1.93-1.91,1.93ZM75.33,21.1c-1.05,0-1.91-.85-1.91-1.91s.85-1.93,1.91-1.93,1.91.83,1.91,1.88v.05c0,1.05-.85,1.91-1.91,1.91ZM26.02,19.93c-1.05,0-1.91-.83-1.91-1.88v-.05c0-1.05.85-1.91,1.91-1.91s1.91.85,1.91,1.91-.85,1.93-1.91,1.93ZM72.66,16c-1.05,0-1.93-.85-1.93-1.91s.83-1.91,1.88-1.91h.05c1.05,0,1.91.85,1.91,1.91s-.85,1.91-1.91,1.91ZM65.53,16c-1.05,0-1.93-.85-1.93-1.91s.83-1.91,1.88-1.91h.05c1.05,0,1.91.85,1.91,1.91s-.85,1.91-1.91,1.91ZM58.4,16c-1.05,0-1.93-.85-1.93-1.91s.83-1.91,1.88-1.91h.05c1.05,0,1.91.85,1.91,1.91s-.85,1.91-1.91,1.91ZM51.28,16c-1.05,0-1.93-.85-1.93-1.91s.83-1.91,1.88-1.91h.05c1.05,0,1.91.85,1.91,1.91s-.85,1.91-1.91,1.91ZM44.15,16c-1.05,0-1.93-.85-1.93-1.91s.83-1.91,1.88-1.91h.05c1.05,0,1.91.85,1.91,1.91s-.85,1.91-1.91,1.91ZM37.02,16c-1.05,0-1.93-.85-1.93-1.91s.83-1.91,1.88-1.91h.05c1.05,0,1.91.85,1.91,1.91s-.85,1.91-1.91,1.91ZM29.89,16c-1.05,0-1.93-.85-1.93-1.91s.83-1.91,1.88-1.91h.05c1.05,0,1.91.85,1.91,1.91s-.85,1.91-1.91,1.91Z"/>
      <g>
        <polygon class="cls-2" points="75.33 31.46 75.33 83.69 26.02 83.69 26.02 62.52 52.17 62.52 66.4 31.46 75.33 31.46"/>
        <path class="cls-1" d="M75.33,85.6H26.02c-1.05,0-1.91-.85-1.91-1.91v-21.17c0-1.05.85-1.91,1.91-1.91h24.92l13.72-29.94c.31-.68.99-1.11,1.74-1.11h8.94c1.05,0,1.91.85,1.91,1.91v52.23c0,1.05-.85,1.91-1.91,1.91ZM27.93,81.78h45.5v-48.41h-5.8l-13.72,29.94c-.31.68-.99,1.11-1.74,1.11h-24.24v17.36Z"/>
      </g>
    </g>
  </g>
</svg>