<?xml version="1.0" encoding="UTF-8"?>
<svg id="Layer_2" xmlns="http://www.w3.org/2000/svg" viewBox="0 0 73.6 91.76">
  <defs>
    <style>
      .cls-1 {
        fill: #ee4823;
      }
    </style>
  </defs>
  <g id="Layer_1-2" data-name="Layer_1">
    <g>
      <path class="cls-1" d="M71.69,45.39H1.91c-1.05,0-1.91-.85-1.91-1.91s.85-1.91,1.91-1.91h69.79c1.05,0,1.91.85,1.91,1.91s-.85,1.91-1.91,1.91Z"/>
      <path class="cls-1" d="M42.65,45.39h-11.7c-1.05,0-1.91-.85-1.91-1.91V1.91c0-1.05.85-1.91,1.91-1.91h11.7c1.05,0,1.91.85,1.91,1.91v41.57c0,1.05-.85,1.91-1.91,1.91ZM32.86,41.57h7.88V3.82h-7.88v37.75Z"/>
      <g>
        <path class="cls-1" d="M69.94,91.6h-32.91c-1.05,0-1.91-.85-1.91-1.91v-46.22c0-1.05.85-1.91,1.91-1.91s1.91.85,1.91,1.91v31.73l22.23-.21c3.2,0,5.75,1.06,7.61,3.14,3.85,4.31,3.08,11.46,3.05,11.77-.11.96-.93,1.69-1.9,1.69ZM38.94,87.79h29.16c-.03-1.94-.38-5.11-2.17-7.11-1.12-1.25-2.67-1.86-4.74-1.86l-22.25.21v8.76Z"/>
        <path class="cls-1" d="M6.94,91.76c-1.04,0-1.72-.07-1.81-.08-.96-.11-1.69-.93-1.69-1.9v-32.91c0-1.05.85-1.91,1.91-1.91h31.7c1.05,0,1.91.85,1.91,1.91s-.85,1.91-1.91,1.91h-17.21l.21,22.23c0,3.2-1.06,5.75-3.14,7.62-3.04,2.71-7.49,3.13-9.95,3.13ZM7.25,58.78v29.16c1.94-.03,5.11-.38,7.11-2.17,1.25-1.12,1.86-2.67,1.86-4.74l-.21-22.25H7.25Z"/>
      </g>
    </g>
  </g>
</svg>