<?xml version="1.0" encoding="UTF-8"?>
<svg id="Layer_2" xmlns="http://www.w3.org/2000/svg" viewBox="0 0 107.21 70.34">
  <defs>
    <style>
      .cls-1 {
        fill: #ee4823;
      }

      .cls-2 {
        fill: #ef4823;
      }
    </style>
  </defs>
  <g id="Layer_1-2" data-name="Layer_1">
    <g>
      <path class="cls-1" d="M105.3,3.82H1.91c-1.05,0-1.91-.85-1.91-1.91S.85,0,1.91,0h103.39c1.05,0,1.91.85,1.91,1.91s-.85,1.91-1.91,1.91Z"/>
      <path class="cls-1" d="M63.79,70.34H16.59c-5.14,0-9.33-4.18-9.33-9.33V0h65.85v61.01c0,5.14-4.18,9.33-9.33,9.33ZM11.08,3.82v57.19c0,3.04,2.47,5.51,5.51,5.51h47.2c3.04,0,5.51-2.47,5.51-5.51V3.82H11.08Z"/>
      <path class="cls-1" d="M89.81,70.34h-10.59c-5.47,0-9.92-4.45-9.92-9.92V0h30.42v60.42c0,5.47-4.45,9.92-9.92,9.92ZM73.12,3.82v56.61c0,3.36,2.74,6.1,6.1,6.1h10.59c3.36,0,6.1-2.74,6.1-6.1V3.82h-22.79Z"/>
      <path class="cls-2" d="M69.61,25.14c-5.56,0-11.67-.52-18.1-1.89-25.25-5.38-42.43-.1-42.6-.04l-1.07-3.45c.73-.23,18.25-5.61,44.4-.04,25.11,5.34,45.55-3.03,45.75-3.12l1.38,3.33c-.66.27-12.64,5.2-29.76,5.2Z"/>
      <path class="cls-1" d="M77.08,14.55h-11.73c-1.05,0-1.91-.85-1.91-1.91s.85-1.91,1.91-1.91h11.73c1.05,0,1.91.85,1.91,1.91s-.85,1.91-1.91,1.91Z"/>
      <path class="cls-1" d="M77.08,36.08h-11.73c-1.05,0-1.91-.85-1.91-1.91s.85-1.91,1.91-1.91h11.73c1.05,0,1.91.85,1.91,1.91s-.85,1.91-1.91,1.91Z"/>
      <path class="cls-1" d="M77.08,48.09h-11.73c-1.05,0-1.91-.85-1.91-1.91s.85-1.91,1.91-1.91h11.73c1.05,0,1.91.85,1.91,1.91s-.85,1.91-1.91,1.91Z"/>
      <path class="cls-1" d="M77.08,60.1h-11.73c-1.05,0-1.91-.85-1.91-1.91s.85-1.91,1.91-1.91h11.73c1.05,0,1.91.85,1.91,1.91s-.85,1.91-1.91,1.91Z"/>
    </g>
  </g>
</svg>