<?xml version="1.0" encoding="UTF-8"?>
<svg id="Layer_2" data-name="Layer 2" xmlns="http://www.w3.org/2000/svg" viewBox="0 0 316.74 333.66">
  <defs>
    <style>
      .cls-1 {
        fill: #ee4823;
        stroke-width: 0px;
      }
    </style>
  </defs>
  <g id="Layer_1-2" data-name="Layer 1">
    <path class="cls-1" d="M316.08,192.58c-.08-.32-.14-.55-.22-.78l-47.9-147.24,25.05-4.05c1.96-.32,3.68-1.38,4.84-2.99,1.16-1.61,1.63-3.58,1.31-5.54-.66-4.05-4.49-6.83-8.53-6.15l-99.37,16.09-.14-.34c-4.33-10.74-13.64-18.66-24.9-21.21l-.36-.08V7.44c0-4.1-3.34-7.44-7.44-7.44s-7.44,3.34-7.44,7.44v12.84l-.36.08c-15.13,3.43-26.37,16.63-27.34,32.11l-.02.37-.37.06-101.26,16.35c-1.96.32-3.68,1.38-4.85,2.99-1.16,1.61-1.63,3.58-1.31,5.54.65,4.05,4.48,6.83,8.53,6.16l31.2-5.04-.28.75L1.36,222.12c-.04.1-.07.2-.11.3l-.05.11c-.78,1.2-1.2,2.6-1.2,4.05,0,34.79,28.31,63.1,63.1,63.1s63.1-28.31,63.1-63.1c0-1.23-.31-2.45-.89-3.53l-48.06-147.7,48.36-7.81.14.34c4.19,10.4,13.16,18.25,24.01,20.99l.35.09v229.82h-54.15c-4.1,0-7.44,3.34-7.44,7.44s3.34,7.44,7.44,7.44h130.58c4.1,0,7.44-3.34,7.44-7.44s-3.34-7.44-7.44-7.44h-61.55V89.35l.38-.07c15.62-3.11,27.23-16.4,28.23-32.3l.02-.37.37-.06,51.61-8.35-.28.75-53.46,142.25c-.06.16-.11.32-.16.48l-.05.11c-.71,1.16-1.09,2.5-1.09,3.88,0,34.79,28.31,63.1,63.1,63.1s63.1-28.31,63.1-63.1c0-1.06-.22-2.1-.66-3.07ZM110.66,234.56c-3.89,23.32-23.89,40.24-47.56,40.24s-43.68-16.92-47.56-40.24l-.09-.54h95.31l-.09.54ZM108.38,219.14H18.37l48.25-128.37,41.77,128.37ZM158.43,75.08c-11.22,0-20.35-9.13-20.35-20.36s9.13-20.35,20.35-20.35,20.35,9.13,20.35,20.35-9.13,20.36-20.35,20.36ZM257.2,59.58l41.85,128.63h-90.19l48.35-128.63ZM301.21,203.63c-3.89,23.32-23.89,40.24-47.56,40.24s-43.68-16.92-47.56-40.24l-.09-.54h95.31l-.09.54Z"/>
  </g>
</svg>