<?xml version="1.0" encoding="utf-8"?>
<!-- Generator: Adobe Illustrator 28.1.0, SVG Export Plug-In . SVG Version: 6.00 Build 0)  -->
<svg version="1.1" id="Layer_1" xmlns="http://www.w3.org/2000/svg" xmlns:xlink="http://www.w3.org/1999/xlink" x="0px" y="0px"
	 viewBox="0 0 2306.5 1892" style="enable-background:new 0 0 2306.5 1892;" xml:space="preserve">
<style type="text/css">
	.st0{fill-rule:evenodd;clip-rule:evenodd;fill:#A0A0A0;}
	.st1{fill:url(#SVGID_1_);}
	.st2{fill:url(#SVGID_00000115512131212933749890000000504779663532443571_);}
	.st3{fill:url(#SVGID_00000027577595539239357640000004171381005407566993_);}
	.st4{fill-rule:evenodd;clip-rule:evenodd;fill:url(#SVGID_00000080920247231628358150000006504841452007953337_);}
	.st5{fill:url(#SVGID_00000060740057559285766850000011676862573617442213_);}
	.st6{fill:url(#SVGID_00000176756816230772039350000004016717922188025216_);}
	.st7{fill:url(#SVGID_00000034770152450715614020000008393459263896478389_);}
	.st8{fill-rule:evenodd;clip-rule:evenodd;fill:#FFFFFF;}
	.st9{fill:none;}
	.st10{fill:#FFFFFF;}
	.st11{fill:url(#SVGID_00000100367409411061463080000014249499655999320216_);}
	.st12{fill:url(#SVGID_00000171678266099575767310000017376893990241633169_);}
</style>
<rect y="0" class="st0" width="2306.5" height="1892"/>
<linearGradient id="SVGID_1_" gradientUnits="userSpaceOnUse" x1="1951.2" y1="-359.5922" x2="2067.2" y2="-359.5922" gradientTransform="matrix(1 0 0 1 0 960.8922)">
	<stop  offset="0" style="stop-color:#EF4923"/>
	<stop  offset="1" style="stop-color:#F47523"/>
</linearGradient>
<path class="st1" d="M2009.2,659.2c32,0,58-25.9,58-57.9s-25.9-57.9-58-57.9c-32,0-58,25.9-58,57.9S1977.2,659.2,2009.2,659.2z"/>
<linearGradient id="SVGID_00000181776784125347991140000009377158418283854256_" gradientUnits="userSpaceOnUse" x1="239.3" y1="-359.5922" x2="355.3" y2="-359.5922" gradientTransform="matrix(1 0 0 1 0 960.8922)">
	<stop  offset="0" style="stop-color:#EF4923"/>
	<stop  offset="1" style="stop-color:#F47523"/>
</linearGradient>
<path style="fill:url(#SVGID_00000181776784125347991140000009377158418283854256_);" d="M297.3,659.2c32,0,58-25.9,58-57.9
	s-26-57.9-58-57.9s-58,25.9-58,57.9S265.3,659.2,297.3,659.2z"/>
<linearGradient id="SVGID_00000109013049198937813100000010119050871917232003_" gradientUnits="userSpaceOnUse" x1="1213.7" y1="-656.5921" x2="1329.7" y2="-656.5921" gradientTransform="matrix(1 0 0 1 0 960.8922)">
	<stop  offset="0" style="stop-color:#EF4923"/>
	<stop  offset="1" style="stop-color:#F47523"/>
</linearGradient>
<path style="fill:url(#SVGID_00000109013049198937813100000010119050871917232003_);" d="M1271.7,362.2c32,0,58-25.9,58-57.9
	s-25.9-57.9-58-57.9c-32,0-58,25.9-58,57.9S1239.7,362.2,1271.7,362.2z"/>
<linearGradient id="SVGID_00000049189973169987818440000003584547252403808148_" gradientUnits="userSpaceOnUse" x1="399.4" y1="-441.3922" x2="1932.7" y2="-441.3922" gradientTransform="matrix(1 0 0 1 0 960.8922)">
	<stop  offset="0" style="stop-color:#000000"/>
	<stop  offset="1" style="stop-color:#231F20"/>
</linearGradient>
<path style="fill-rule:evenodd;clip-rule:evenodd;fill:url(#SVGID_00000049189973169987818440000003584547252403808148_);" d="
	M726.6,246.5h93.8v412.7h-93.8V246.5z M399.4,246.5v412.7h93.8v-155l102.7,155h112.5l-102.7-155l102.7-155H595.9l-25.8,39
	c-22.9,34.6-76.8,18.4-76.8-23.1V246.5H399.4z M1623.7,246.4v412.7h93.8v-155l102.7,155h112.5l-102.7-155l102.7-155h-112.5l-25.8,39
	c-22.9,34.6-76.8,18.4-76.8-23.1V246.4H1623.7z M1103.9,644.4v148.1c0,0,0,0.1,0.1,0.1h93.6c0,0,0.1,0,0.1-0.1V350.8
	c0,0,0-0.1-0.1-0.1H1104c0,0-0.1,0-0.1,0.1v150c0,38.2-32.5,69.1-72.2,68.1c-38.4-1-68.5-32.4-68.5-69.6v-142v-6.5
	c0-0.1,0-0.1-0.1-0.1h-93.6c0,0-0.1,0-0.1,0.1v147.8c0,87.3,71.8,160,162,161.1C1057.4,660,1082,654.5,1103.9,644.4L1103.9,644.4z
	 M1246.8,510.6v150.2h93.8V510.6c0-37.6,31.5-68.1,70.3-68.1s70.4,30.5,70.4,68.1v150.2h93.8V510.6c0-87.7-73.5-158.9-164.2-158.9
	C1320.3,351.7,1246.8,422.9,1246.8,510.6z"/>
<linearGradient id="SVGID_00000070805893809197139090000015711430407908530072_" gradientUnits="userSpaceOnUse" x1="1951.2" y1="493.3078" x2="2067.2" y2="493.3078" gradientTransform="matrix(1 0 0 1 0 960.8922)">
	<stop  offset="0" style="stop-color:#EF4923"/>
	<stop  offset="1" style="stop-color:#F47523"/>
</linearGradient>
<path style="fill:url(#SVGID_00000070805893809197139090000015711430407908530072_);" d="M2009.2,1512.1c32,0,58-25.9,58-57.9
	s-25.9-57.9-58-57.9c-32,0-58,25.9-58,57.9S1977.2,1512.1,2009.2,1512.1z"/>
<linearGradient id="SVGID_00000150825409938990384570000014538714350620084410_" gradientUnits="userSpaceOnUse" x1="239.3" y1="493.3078" x2="355.3" y2="493.3078" gradientTransform="matrix(1 0 0 1 0 960.8922)">
	<stop  offset="0" style="stop-color:#EF4923"/>
	<stop  offset="1" style="stop-color:#F47523"/>
</linearGradient>
<path style="fill:url(#SVGID_00000150825409938990384570000014538714350620084410_);" d="M297.3,1512.1c32,0,58-25.9,58-57.9
	s-26-57.9-58-57.9s-58,25.9-58,57.9S265.3,1512.1,297.3,1512.1z"/>
<linearGradient id="SVGID_00000087391775588749536680000007015971249530283672_" gradientUnits="userSpaceOnUse" x1="1213.7" y1="196.4078" x2="1329.7" y2="196.4078" gradientTransform="matrix(1 0 0 1 0 960.8922)">
	<stop  offset="0" style="stop-color:#EF4923"/>
	<stop  offset="1" style="stop-color:#F47523"/>
</linearGradient>
<path style="fill:url(#SVGID_00000087391775588749536680000007015971249530283672_);" d="M1271.7,1215.2c32,0,58-25.9,58-57.9
	s-25.9-57.9-58-57.9c-32,0-58,25.9-58,57.9S1239.7,1215.2,1271.7,1215.2z"/>
<path class="st8" d="M726.6,1099.5h93.8v412.7h-93.8V1099.5z M399.4,1099.5v412.7h93.8v-155l102.7,155h112.5l-102.7-155l102.7-155
	H595.9l-25.8,39c-22.9,34.6-76.8,18.4-76.8-23.1v-118.6H399.4z M1623.7,1099.4v412.7h93.8v-155l102.7,155h112.5l-102.7-155
	l102.7-155h-112.5l-25.8,39c-22.9,34.6-76.8,18.4-76.8-23.1v-118.6L1623.7,1099.4L1623.7,1099.4z M1103.9,1497.4v148.1
	c0,0,0,0.1,0.1,0.1h93.6l0.1-0.1v-441.8c0,0,0-0.1-0.1-0.1H1104l-0.1,0.1v150c0,38.2-32.5,69.1-72.2,68.1
	c-38.4-1-68.5-32.4-68.5-69.6v-142v-6.5c0-0.1,0-0.1-0.1-0.1h-93.6l-0.1,0.1v147.8c0,87.3,71.8,160,162,161.1
	C1057.4,1513,1082,1507.4,1103.9,1497.4L1103.9,1497.4z M1246.8,1363.5v150.2h93.8v-150.2c0-37.6,31.5-68.1,70.3-68.1
	s70.4,30.5,70.4,68.1v150.2h93.8v-150.2c0-87.7-73.5-158.9-164.2-158.9C1320.3,1204.7,1246.8,1275.8,1246.8,1363.5z"/>
<path class="st9" d="M1999.2,1119.3c-1.9,0-3.5,0.1-4.8,0.2v11.4h5.7c5.9,0,8.8-1.9,8.8-5.8
	C2008.9,1123.6,2008.9,1119.3,1999.2,1119.3z"/>
<path class="st9" d="M2000.5,1105.7c-15.1,0-27.4,12.3-27.4,27.4s12.3,27.4,27.4,27.4s27.4-12.3,27.4-27.4
	S2015.6,1105.7,2000.5,1105.7z M2010.2,1152.7l-0.1-0.6c-1.4-10.4-4.7-15.6-9.7-15.6h-6v16.3h-6.8v-38.1l0.6-0.1c4.1-0.7,7.8-1,11-1
	c4.9,0,8.9,1,11.8,3c3,2,4.5,4.8,4.5,8.3c0,4.2-2,7.3-5.8,9.4c1.7,1.3,3,3.1,4,5.3c1.2,2.6,2.2,6.7,3.1,12.4l0.1,0.9H2010.2z"/>
<path class="st9" d="M2000.5,1104.7c-15.7,0-28.4,12.8-28.4,28.4s12.8,28.4,28.4,28.4s28.4-12.8,28.4-28.4
	S2016.2,1104.7,2000.5,1104.7z"/>
<g>
	<path class="st10" d="M2023.5,1110.2c-6.1-6.1-14.3-9.5-23-9.5c-8.7,0-16.8,3.4-23,9.5c-6.1,6.1-9.5,14.3-9.5,23s3.4,16.8,9.5,23
		s14.3,9.5,23,9.5s16.8-3.4,23-9.5c6.1-6.1,9.5-14.3,9.5-23C2033,1124.5,2029.6,1116.3,2023.5,1110.2z M2000.5,1162.6
		c-16.2,0-29.4-13.2-29.4-29.4c0-16.2,13.2-29.4,29.4-29.4c16.2,0,29.4,13.2,29.4,29.4C2029.9,1149.4,2016.7,1162.6,2000.5,1162.6z"
		/>
	<path class="st10" d="M2007.8,1134.6l-1.2-0.8l1.3-0.6c4.1-1.8,6.1-4.6,6.1-8.6c0-3-1.3-5.3-3.9-7.1c-2.7-1.8-6.4-2.7-11-2.7
		c-3,0-6.4,0.3-10.1,0.9v35.4h3.8V1135h7.5c5.7,0,9.5,5.5,11.1,16.3h3.8c-0.9-5.1-1.8-8.9-2.9-11.2
		C2011.3,1137.7,2009.8,1135.9,2007.8,1134.6z M2000.2,1132.4h-7.2v-14.3l0.7-0.1c1.5-0.2,3.4-0.2,5.6-0.2c7.4,0,11.2,2.4,11.2,7.3
		C2010.4,1129.9,2007,1132.4,2000.2,1132.4z"/>
</g>
<g>
	
		<linearGradient id="SVGID_00000031174765952757694060000000579075967360456860_" gradientUnits="userSpaceOnUse" x1="1968.0098" y1="278.8971" x2="2033.0039" y2="278.8971">
		<stop  offset="0" style="stop-color:#000000"/>
		<stop  offset="1" style="stop-color:#231F20"/>
	</linearGradient>
	<path style="fill:url(#SVGID_00000031174765952757694060000000579075967360456860_);" d="M2023.5,255.9c-6.1-6.1-14.3-9.5-23-9.5
		c-8.7,0-16.8,3.4-23,9.5c-6.1,6.1-9.5,14.3-9.5,23s3.4,16.8,9.5,23s14.3,9.5,23,9.5s16.8-3.4,23-9.5c6.1-6.1,9.5-14.3,9.5-23
		C2033,270.2,2029.6,262.1,2023.5,255.9z M2000.5,308.3c-16.2,0-29.4-13.2-29.4-29.4c0-16.2,13.2-29.4,29.4-29.4
		c16.2,0,29.4,13.2,29.4,29.4C2029.9,295.1,2016.7,308.3,2000.5,308.3z"/>
	
		<linearGradient id="SVGID_00000013895229013661574070000006900633003155247525_" gradientUnits="userSpaceOnUse" x1="1989.1025" y1="278.8556" x2="2015.2832" y2="278.8556">
		<stop  offset="0" style="stop-color:#000000"/>
		<stop  offset="1" style="stop-color:#231F20"/>
	</linearGradient>
	<path style="fill:url(#SVGID_00000013895229013661574070000006900633003155247525_);" d="M2007.8,280.4l-1.2-0.8l1.3-0.6
		c4.1-1.8,6.1-4.6,6.1-8.6c0-3-1.3-5.3-3.9-7.1c-2.7-1.8-6.4-2.7-11-2.7c-3,0-6.4,0.3-10.1,0.9V297h3.8v-16.3h7.5
		c5.7,0,9.5,5.5,11.1,16.3h3.8c-0.9-5.1-1.8-8.9-2.9-11.2C2011.3,283.4,2009.8,281.6,2007.8,280.4z M2000.2,278.2h-7.2v-14.3
		l0.7-0.1c1.5-0.2,3.4-0.2,5.6-0.2c7.4,0,11.2,2.4,11.2,7.3C2010.4,275.7,2007,278.2,2000.2,278.2z"/>
</g>
</svg>
