<?xml version="1.0" encoding="utf-8"?>
<!-- Generator: Adobe Illustrator 27.4.0, SVG Export Plug-In . SVG Version: 6.00 Build 0)  -->
<svg version="1.1" id="Layer_1" xmlns="http://www.w3.org/2000/svg" xmlns:xlink="http://www.w3.org/1999/xlink" x="0px" y="0px"
	 viewBox="0 0 2306.5 1892" style="enable-background:new 0 0 2306.5 1892;" xml:space="preserve">
<style type="text/css">
	.st0{fill-rule:evenodd;clip-rule:evenodd;fill:#A0A0A0;}
	.st1{fill:url(#SVGID_1_);}
	.st2{fill:url(#SVGID_00000108272216106327046920000006379988917860631708_);}
	.st3{fill:url(#SVGID_00000006669524962506644840000005311332375508988595_);}
	.st4{fill-rule:evenodd;clip-rule:evenodd;fill:url(#SVGID_00000072999860474553483830000002431831777035870901_);}
	.st5{fill:url(#SVGID_00000064324707638488815600000014616775489896457115_);}
	.st6{fill:url(#SVGID_00000026150294316432713060000017547285572559783830_);}
	.st7{fill:url(#SVGID_00000096020184991350119790000002865778796493490854_);}
	.st8{fill-rule:evenodd;clip-rule:evenodd;fill:#FFFFFF;}
</style>
<rect class="st0" width="2306.5" height="1892"/>
<linearGradient id="SVGID_1_" gradientUnits="userSpaceOnUse" x1="1951.2261" y1="1201.5426" x2="2067.166" y2="1201.5426" gradientTransform="matrix(1 0 0 -1 0 1802.782)">
	<stop  offset="0" style="stop-color:#EF4923"/>
	<stop  offset="1" style="stop-color:#F47523"/>
</linearGradient>
<path class="st1" d="M2009.2,659.2c32,0,58-25.9,58-57.9s-25.9-57.9-58-57.9c-32,0-58,25.9-58,57.9S1977.2,659.2,2009.2,659.2z"/>
<linearGradient id="SVGID_00000114041037239804353060000010971077584843456395_" gradientUnits="userSpaceOnUse" x1="239.3042" y1="1201.5426" x2="355.239" y2="1201.5426" gradientTransform="matrix(1 0 0 -1 0 1802.782)">
	<stop  offset="0" style="stop-color:#EF4923"/>
	<stop  offset="1" style="stop-color:#F47523"/>
</linearGradient>
<path style="fill:url(#SVGID_00000114041037239804353060000010971077584843456395_);" d="M297.3,659.2c32,0,58-25.9,58-57.9
	s-26-57.9-58-57.9c-32,0-58,25.9-58,57.9S265.3,659.2,297.3,659.2z"/>
<linearGradient id="SVGID_00000000207422400277420670000003916491930607479461_" gradientUnits="userSpaceOnUse" x1="1213.745" y1="1498.4871" x2="1329.676" y2="1498.4871" gradientTransform="matrix(1 0 0 -1 0 1802.782)">
	<stop  offset="0" style="stop-color:#EF4923"/>
	<stop  offset="1" style="stop-color:#F47523"/>
</linearGradient>
<path style="fill:url(#SVGID_00000000207422400277420670000003916491930607479461_);" d="M1271.7,362.2c32,0,58-25.9,58-57.9
	c0-32-25.9-57.9-58-57.9c-32,0-58,25.9-58,57.9C1213.7,336.3,1239.7,362.2,1271.7,362.2z"/>
<linearGradient id="SVGID_00000021799019057626897710000003757292152662901423_" gradientUnits="userSpaceOnUse" x1="399.437" y1="1283.2196" x2="1932.676" y2="1283.2196" gradientTransform="matrix(1 0 0 -1 0 1802.782)">
	<stop  offset="0" style="stop-color:#000000"/>
	<stop  offset="1" style="stop-color:#231F20"/>
</linearGradient>
<path style="fill-rule:evenodd;clip-rule:evenodd;fill:url(#SVGID_00000021799019057626897710000003757292152662901423_);" d="
	M726.6,246.5h93.8v412.7h-93.8V246.5z M399.4,246.5v412.7h93.8v-155l102.7,155h112.5l-102.7-155l102.7-155H595.9l-25.8,39
	c-22.9,34.6-76.8,18.4-76.8-23.1V246.5H399.4z M1623.7,246.4v412.7h93.8v-155l102.7,155h112.5l-102.7-155l102.7-155h-112.5l-25.8,39
	c-22.9,34.6-76.8,18.4-76.8-23.1V246.4H1623.7z M1103.9,644.4v148.1c0,0,0,0.1,0.1,0.1h93.6c0,0,0.1,0,0.1-0.1V350.8
	c0,0,0-0.1-0.1-0.1H1104c0,0-0.1,0-0.1,0.1v150c0,38.2-32.5,69.1-72.2,68.1c-38.4-1-68.5-32.4-68.5-69.6v-142v-6.5
	c0-0.1,0-0.1-0.1-0.1h-93.6c0,0-0.1,0-0.1,0.1v147.8c0,87.3,71.8,160,162,161.1C1057.4,660,1082,654.5,1103.9,644.4L1103.9,644.4z
	 M1246.8,510.6v150.2h93.8V510.6c0-37.6,31.5-68.1,70.3-68.1s70.4,30.5,70.4,68.1v150.2h93.8V510.6c0-87.7-73.5-158.9-164.2-158.9
	C1320.3,351.7,1246.8,422.9,1246.8,510.6z"/>
<linearGradient id="SVGID_00000139973806358322645340000009071166928859049604_" gradientUnits="userSpaceOnUse" x1="1951.2261" y1="348.6036" x2="2067.166" y2="348.6036" gradientTransform="matrix(1 0 0 -1 0 1802.782)">
	<stop  offset="0" style="stop-color:#EF4923"/>
	<stop  offset="1" style="stop-color:#F47523"/>
</linearGradient>
<path style="fill:url(#SVGID_00000139973806358322645340000009071166928859049604_);" d="M2009.2,1512.1c32,0,58-25.9,58-57.9
	s-25.9-57.9-58-57.9c-32,0-58,25.9-58,57.9S1977.2,1512.1,2009.2,1512.1z"/>
<linearGradient id="SVGID_00000170964711507657958360000016074163975966354611_" gradientUnits="userSpaceOnUse" x1="239.3042" y1="348.6036" x2="355.239" y2="348.6036" gradientTransform="matrix(1 0 0 -1 0 1802.782)">
	<stop  offset="0" style="stop-color:#EF4923"/>
	<stop  offset="1" style="stop-color:#F47523"/>
</linearGradient>
<path style="fill:url(#SVGID_00000170964711507657958360000016074163975966354611_);" d="M297.3,1512.1c32,0,58-25.9,58-57.9
	s-26-57.9-58-57.9c-32,0-58,25.9-58,57.9S265.3,1512.1,297.3,1512.1z"/>
<linearGradient id="SVGID_00000127724809858088120040000015788805946494443402_" gradientUnits="userSpaceOnUse" x1="1213.745" y1="645.5471" x2="1329.676" y2="645.5471" gradientTransform="matrix(1 0 0 -1 0 1802.782)">
	<stop  offset="0" style="stop-color:#EF4923"/>
	<stop  offset="1" style="stop-color:#F47523"/>
</linearGradient>
<path style="fill:url(#SVGID_00000127724809858088120040000015788805946494443402_);" d="M1271.7,1215.2c32,0,58-25.9,58-57.9
	s-25.9-57.9-58-57.9c-32,0-58,25.9-58,57.9S1239.7,1215.2,1271.7,1215.2z"/>
<path class="st8" d="M726.6,1099.5h93.8v412.7h-93.8V1099.5z M399.4,1099.5v412.7h93.8v-155l102.7,155h112.5l-102.7-155l102.7-155
	H595.9l-25.8,39c-22.9,34.6-76.8,18.4-76.8-23.1v-118.6H399.4z M1623.7,1099.4v412.7h93.8v-155l102.7,155h112.5l-102.7-155
	l102.7-155h-112.5l-25.8,39c-22.9,34.6-76.8,18.4-76.8-23.1v-118.6H1623.7z M1103.9,1497.4v148.1c0,0,0,0.1,0.1,0.1h93.6
	c0,0,0.1-0.1,0.1-0.1v-441.8c0,0,0-0.1-0.1-0.1H1104c0,0-0.1,0.1-0.1,0.1v150c0,38.2-32.5,69.1-72.2,68.1
	c-38.4-1-68.5-32.4-68.5-69.6v-142v-6.5c0-0.1,0-0.1-0.1-0.1h-93.6c0,0-0.1,0.1-0.1,0.1v147.8c0,87.3,71.8,160,162,161.1
	C1057.4,1513,1082,1507.4,1103.9,1497.4L1103.9,1497.4z M1246.8,1363.5v150.2h93.8v-150.2c0-37.6,31.5-68.1,70.3-68.1
	s70.4,30.5,70.4,68.1v150.2h93.8v-150.2c0-87.7-73.5-158.9-164.2-158.9C1320.3,1204.7,1246.8,1275.8,1246.8,1363.5z"/>
</svg>
